<svg version="1.0" xmlns="http://www.w3.org/2000/svg" width="500.000000pt" height="500.000000pt" viewBox="0 0 500.000000 500.000000" preserveAspectRatio="xMidYMid meet">
   <g transform="translate(0.000000,500.000000) scale(0.100000,-0.100000)" fill="#FF0100" stroke="none">
      <path d="M193 4128 c12 -187 107 -324 260 -375 47 -16 129 -18 915 -21 l862
      -3 -41 -49 -42 -50 -814 0 -813 0 0 -42 c0 -71 27 -175 61 -238 38 -73 92
      -123 168 -159 l56 -26 537 -5 c295 -3 539 -8 542 -11 4 -3 1 -29 -6 -58 l-11
      -51 -460 0 -460 0 6 -78 c14 -178 99 -308 240 -365 48 -20 74 -22 343 -25
      l292 -3 7 -56 c4 -31 9 -62 12 -70 4 -11 -38 -13 -236 -13 l-241 0 0 -66 c0
      -117 39 -230 105 -302 71 -79 189 -111 415 -112 l135 0 103 -139 c211 -285
      353 -394 666 -516 169 -65 151 -68 165 22 7 43 14 85 17 94 3 13 -17 20 -113
      39 -139 26 -258 67 -364 121 l-76 40 74 297 c41 163 76 298 78 300 2 3 23 -11
      47 -30 110 -89 217 -150 333 -189 57 -19 91 -24 180 -24 102 0 115 2 175 31
      120 57 180 132 180 227 0 90 -77 145 -350 252 -233 92 -349 155 -416 228 -148
      159 -180 381 -93 642 97 290 364 527 672 595 31 7 61 18 65 24 5 6 14 49 21
      96 6 47 14 100 18 118 l5 32 -1612 0 -1613 0 6 -82z"/>
      <path d="M3740 4078 c-6 -40 -13 -83 -16 -95 -5 -25 -11 -23 120 -49 86 -17
      144 -38 235 -84 l60 -30 -84 -251 c-47 -139 -86 -253 -88 -255 -1 -2 -43 17
      -92 41 -193 96 -377 110 -515 40 -76 -38 -110 -88 -110 -159 0 -85 65 -135
      322 -250 381 -171 468 -234 542 -396 110 -243 4 -638 -231 -861 -96 -91 -223
      -165 -423 -244 l-105 -42 -19 -127 c-10 -70 -16 -129 -13 -132 12 -12 268 19
      370 45 539 136 962 559 1098 1098 105 417 28 851 -217 1221 -80 120 -281 320
      -404 401 -109 73 -234 137 -338 175 -40 14 -75 26 -77 26 -2 0 -8 -33 -15 -72z"/>
   </g>
</svg>
